HIERARCHY
ROOT Hips
{
	OFFSET 0.00000 0.00000 0.00000
	CHANNELS 6 Xposition Yposition Zposition Zrotation Yrotation Xrotation 
	JOINT LHipJoint
	{
		OFFSET 0 0 0
		CHANNELS 3 Zrotation Yrotation Xrotation
		JOINT LeftHip
		{
			OFFSET 1.61024 -1.73873 0.75100
			CHANNELS 3 Zrotation Yrotation Xrotation
			JOINT LeftKnee
			{
				OFFSET 2.29819 -6.31424 0.00000
				CHANNELS 3 Zrotation Yrotation Xrotation
				JOINT LeftAnkle
				{
					OFFSET 2.76618 -7.60002 0.00000
					CHANNELS 3 Zrotation Yrotation Xrotation
					JOINT LeftToe
					{
						OFFSET 0.16838 -0.46263 2.02361
						CHANNELS 3 Zrotation Yrotation Xrotation
						End Site
						{
							OFFSET 0.00000 -0.00000 1.04662
						}
					}
				}
			}
		}
	}
	JOINT RHipJoint
	{
		OFFSET 0 0 0
		CHANNELS 3 Zrotation Yrotation Xrotation
		JOINT RightHip
		{
			OFFSET -1.46153 -1.73873 0.75100
			CHANNELS 3 Zrotation Yrotation Xrotation
			JOINT RightKnee
			{
				OFFSET -2.38373 -6.54924 0.00000
				CHANNELS 3 Zrotation Yrotation Xrotation
				JOINT RightAnkle
				{
					OFFSET -2.80314 -7.70157 0.00000
					CHANNELS 3 Zrotation Yrotation Xrotation
					JOINT RightToe
					{
						OFFSET -0.16142 -0.44349 2.02101
						CHANNELS 3 Zrotation Yrotation Xrotation
						End Site
						{
							OFFSET -0.00000 -0.00000 1.04381
						}
					}
				}
			}
		}
	}
	JOINT lowerback
	{
		OFFSET 0 0 0
		CHANNELS 3 Zrotation Yrotation Xrotation
		JOINT Chest
		{
			OFFSET -0.01629 1.66985 0.14750
			CHANNELS 3 Zrotation Yrotation Xrotation
			JOINT Chest2
			{
				OFFSET 0.02086 1.62378 0.20980
				CHANNELS 3 Zrotation Yrotation Xrotation
				JOINT lowerneck
				{
					OFFSET 0 0 0
					CHANNELS 3 Zrotation Yrotation Xrotation
					JOINT Neck
					{
						OFFSET -0.05690 1.78719 0.08702
						CHANNELS 3 Zrotation Yrotation Xrotation
						JOINT Head
						{
							OFFSET 0.16035 1.73871 -0.38470
							CHANNELS 3 Zrotation Yrotation Xrotation
							End Site
							{
								OFFSET 0.05645 1.80914 -0.14081
							}
						}
					}
				}
				JOINT LeftCollar
				{
					OFFSET 0 0 0
					CHANNELS 3 Zrotation Yrotation Xrotation
					JOINT LeftShoulder
					{
						OFFSET 2.83089 1.66494 -0.46008
CHANNELS 3 Zrotation Xrotation Yrotation
						JOINT LeftElbow
						{
OFFSET 0 -5.548930 -0.000000
CHANNELS 3 Zrotation Xrotation Yrotation
							JOINT LeftWrist
							{
OFFSET 0 -3.028980 -0.000000
CHANNELS 3 Zrotation Xrotation Yrotation
								JOINT lhand
								{
									OFFSET 0 0 0
CHANNELS 3 Zrotation Xrotation Yrotation
									JOINT LFingers
									{
OFFSET 0 -0.640950 -0.000000
CHANNELS 3 Zrotation Xrotation Yrotation
										End Site
										{
OFFSET 0 -0.516750 -0.000000
										}
									}
								}
								JOINT LThumb
								{
OFFSET 0 0.000000 0.000000
CHANNELS 3 Zrotation Xrotation Yrotation
									End Site
									{
OFFSET 0 -0.524640 0.524640
									}
								}
							}
						}
					}
				}
				JOINT RightCollar
				{
					OFFSET 0 0 0
					CHANNELS 3 Zrotation Yrotation Xrotation
					JOINT RightShoulder
					{
						OFFSET -2.84442 1.45761 -0.18088
CHANNELS 3 Zrotation Xrotation Yrotation
						JOINT RightElbow
						{
OFFSET 0 -5.351900 -0.000000
CHANNELS 3 Zrotation Xrotation Yrotation
							JOINT RightWrist
							{
OFFSET 0 -3.025310 -0.000000
CHANNELS 3 Zrotation Xrotation Yrotation
								JOINT rhand
								{
									OFFSET 0 0 0
CHANNELS 3 Zrotation Xrotation Yrotation
									JOINT RFingers
									{
OFFSET 0 -0.783890 -0.000000
CHANNELS 3 Zrotation Xrotation Yrotation
										End Site
										{
OFFSET 0 -0.631990 -0.000000
										}
									}
								}
								JOINT RThumb
								{
OFFSET 0 0.000000 0.000000
CHANNELS 3 Zrotation Xrotation Yrotation
									End Site
									{
OFFSET 0 -0.641640 0.641640
									}
								}
							}
						}
					}
				}
			}
		}
	}
}
MOTION
Frames: 6
Frame Time: 0.008333333333333333
-1.147800 17.705300 1.964500 -72.539500 83.157000 -53.549700 0.000000 0.000000 0.000000 0.266200 -17.115200 -20.542900 0.866000 5.933900 16.592700 -0.929300 20.064200 -19.346500 1.228700 -7.030000 -19.804300 0.000000 0.000000 0.000000 23.143800 17.588400 -25.855800 -1.264900 -7.128900 20.097900 -0.169700 -5.422500 -11.622600 -1.130300 6.752400 -18.984000 -4.570500 -0.763400 12.236400 6.726900 -0.926300 -5.060600 10.393700 0.355000 -12.358600 5.808300 3.945800 -14.453200 -4.389300 4.621000 5.809500 -1.923800 2.163300 4.308000 0.000000 -0.000000 0.000000 15.427200 -27.396800 -89.945900 59.645700 -56.214800 34.046400 -2.834300 -24.338500 -20.941700 0.000000 0.000000 0.000000 -7.125000 0.000000 0.000000 -30.125600 48.387000 2.750300 0.000000 -0.000000 0.000000 -52.868100 -7.026100 52.659000 -68.308300 -58.145200 -41.331400 -6.091300 -33.331700 -7.435500 0.000000 0.000000 0.000000 7.125000 0.000000 -0.000000 15.028700 22.563300 8.396300
-1.103941 17.687552 1.909321 -78.130596 82.767894 -58.824987 0.000000 0.000000 0.000000 0.797532 -16.373581 -22.192142 1.032441 6.462968 18.133779 -0.668440 18.475826 -19.373118 1.161386 -6.840747 -19.244808 0.000000 0.000000 0.000000 23.599716 17.229382 -26.099183 -1.273675 -7.152791 20.168673 -0.197633 -5.119800 -11.834167 -1.048776 6.511950 -18.277314 -6.386752 -0.087106 11.096034 6.209444 -0.357031 -5.205828 10.700530 0.722828 -11.972766 4.801094 2.654638 -15.263086 -2.142656 2.829778 6.961412 -1.200816 1.391190 4.653820 0.000000 0.000000 0.000000 16.249769 -23.745562 -83.255197 52.696028 -54.026369 28.342003 4.405240 -23.456343 -24.878828 0.000000 0.000000 0.000000 -7.125000 0.000000 0.000000 -25.823721 53.006877 5.368599 0.000000 0.000000 0.000000 -51.424790 -4.470279 55.554941 -61.634801 -56.730016 -35.704708 -10.141792 -32.757837 -5.176431 0.000000 0.000000 0.000000 7.125000 0.000000 0.000000 12.303425 24.716354 6.168951
-1.047515 17.681960 1.837141 -86.630167 82.510873 -67.236318 0.000000 0.000000 0.000000 1.105340 -15.947202 -23.382128 1.167819 6.859777 19.300548 -0.468094 16.937762 -18.977069 1.232446 -7.039651 -19.833247 0.000000 0.000000 0.000000 24.028515 16.499541 -25.944387 -1.239717 -7.060294 19.894080 -0.190339 -5.428019 -11.997816 -1.185553 6.909968 -19.448809 -7.776611 0.432150 10.634916 5.556139 0.054451 -5.136636 10.661220 0.968486 -11.730772 4.151564 1.549042 -15.698930 -0.115002 1.251027 7.051838 -0.594688 0.735973 4.680294 0.000000 0.000000 0.000000 19.171291 -18.840317 -74.708540 55.831957 -55.090325 30.897788 3.542739 -30.222140 -29.583903 0.000000 0.000000 0.000000 -7.125000 0.000000 0.000000 -29.962171 56.979053 9.368090 0.000000 0.000000 0.000000 -50.959549 -0.476020 57.819511 -64.162074 -57.319206 -37.825278 -8.991022 -36.124410 -3.181947 0.000000 0.000000 0.000000 7.125000 0.000000 0.000000 13.355358 26.696406 6.087357
-0.985061 17.679249 1.742620 -97.509554 81.850056 -77.947737 0.000000 0.000000 0.000000 1.797821 -16.319188 -24.377231 1.286628 7.187666 20.272511 -0.322474 15.750631 -18.726278 1.249320 -7.086585 -19.972244 0.000000 0.000000 0.000000 24.690659 15.309420 -25.655969 -1.144950 -6.794537 19.108242 -0.205760 -5.385900 -12.225843 -1.064208 6.558448 -18.413623 -8.301357 0.612355 10.573668 4.998417 0.145101 -5.115959 10.301678 1.012037 -11.694475 3.881197 0.824453 -15.827851 1.320897 0.184559 7.138865 -0.192394 0.308558 4.706799 0.000000 0.000000 0.000000 24.748472 -13.527651 -67.503533 65.584254 -57.619784 39.024645 0.097993 -45.484258 -29.769051 0.000000 0.000000 0.000000 -7.125000 0.000000 0.000000 -33.416047 56.428066 10.155160 0.000000 0.000000 0.000000 -51.447579 3.728441 59.406024 -72.409943 -58.795534 -44.828362 -0.950922 -40.628211 -3.107298 0.000000 0.000000 0.000000 7.125000 0.000000 0.000000 19.300151 26.706851 9.056830
-0.923647 17.685962 1.623705 -109.454876 81.039073 -89.815157 0.000000 0.000000 0.000000 2.307449 -17.565704 -25.015979 1.380311 7.434272 21.008515 -0.270238 15.162481 -18.397997 1.317464 -7.269922 -20.517447 0.000000 0.000000 0.000000 25.034534 14.164339 -25.139040 -1.039526 -6.484282 18.196318 -0.167785 -6.149326 -12.326339 -1.078862 6.602007 -18.541658 -8.292706 0.561029 10.625985 4.542234 0.011882 -4.969903 9.788667 0.897180 -11.515383 3.414022 0.166270 -15.715766 2.456585 -0.711041 7.190785 0.161130 -0.062739 4.702912 0.000000 0.000000 0.000000 31.236772 -8.184059 -62.575484 76.470828 -59.296793 48.311005 -0.852149 -59.551307 -31.603954 0.000000 0.000000 0.000000 -7.125000 0.000000 0.000000 -35.921165 57.740662 12.240600 0.000000 0.000000 0.000000 -52.919813 6.881325 60.457505 -84.151984 -59.870123 -54.937742 8.999371 -44.030973 -1.481313 0.000000 0.000000 0.000000 7.125000 0.000000 0.000000 26.703745 27.888952 12.403889
-0.866417 17.704492 1.494365 -123.281043 80.289842 -103.594379 0.000000 0.000000 0.000000 2.002450 -18.826615 -25.277579 1.354690 7.367837 20.809778 -0.189559 14.110656 -17.725599 1.288336 -7.192064 -20.285790 0.000000 0.000000 0.000000 24.549382 13.328944 -24.733922 -0.993959 -6.345006 17.788796 -0.097035 -7.829113 -13.002428 -1.246068 7.077580 -19.945348 -8.530964 0.361082 10.713433 4.272087 -0.339801 -4.866201 9.686724 0.713804 -11.365529 2.850902 -0.293962 -14.860959 2.815429 -1.215951 7.129644 0.320678 -0.312910 4.550813 0.000000 0.000000 0.000000 37.705936 -2.385775 -59.713661 86.534753 -59.953405 56.999523 -4.027602 -70.717839 -33.652290 0.000000 0.000000 0.000000 -7.125000 0.000000 0.000000 -40.910028 58.659787 15.264779 0.000000 0.000000 0.000000 -55.139694 9.360956 61.128420 -96.693365 -59.826930 -65.793192 15.553316 -42.166597 -2.030999 0.000000 0.000000 0.000000 7.125000 0.000000 0.000000 30.924623 26.992612 15.795921
